<?xml version="1.0" encoding="utf-8"?>
<!-- Generator: Adobe Illustrator 19.2.0, SVG Export Plug-In . SVG Version: 6.00 Build 0)  -->
<!DOCTYPE svg PUBLIC "-//W3C//DTD SVG 1.1//EN" "http://www.w3.org/Graphics/SVG/1.1/DTD/svg11.dtd">
<svg version="1.1" id="Layer_1" xmlns="http://www.w3.org/2000/svg" xmlns:xlink="http://www.w3.org/1999/xlink" x="0px" y="0px"
	 viewBox="0 0 792 612" style="enable-background:new 0 0 792 612;" xml:space="preserve">
<style type="text/css">
	.st0{fill:url(#SVGID_1_);}
	.st1{fill:url(#SVGID_2_);}
	.st2{fill:#010101;}
</style>
<g>
	<g>
		<linearGradient id="SVGID_1_" gradientUnits="userSpaceOnUse" x1="206.024" y1="213.3208" x2="206.024" y2="398.0777">
			<stop  offset="0.3" style="stop-color:#EE2B35"/>
			<stop  offset="0.4742" style="stop-color:#E42A33"/>
			<stop  offset="0.6705" style="stop-color:#D3262E"/>
			<stop  offset="0.8769" style="stop-color:#B92127"/>
			<stop  offset="1" style="stop-color:#A61E22"/>
		</linearGradient>
		<path class="st0" d="M190.5,359.3c-10.5-12.4-17.4-30.8-17.8-51.5c0-0.1,0-4.4,0-4.5c0.5-20.6,7.3-39,17.8-51.5
			c13.7-17.8,34-29,56.7-29c14,0,27,4.3,38.2,11.7c-16.8-15-38.9-24.2-63.2-24.3c-0.1,0-0.2,0-0.4,0c-52.6,0-95.3,42.7-95.3,95.3
			c0,51.1,40.2,92.8,90.8,95.2c1.5,0.1,3,0.1,4.5,0.1c24.4,0,46.7-9.2,63.5-24.3c-11.2,7.4-24.2,11.7-38.2,11.7
			C224.5,388.3,204.2,377,190.5,359.3z"/>
		<g>
			<linearGradient id="SVGID_2_" gradientUnits="userSpaceOnUse" x1="253.8909" y1="224.2104" x2="253.8909" y2="387.6189">
				<stop  offset="0" style="stop-color:#9C1C1F"/>
				<stop  offset="0.7" style="stop-color:#F04F50"/>
			</linearGradient>
			<path class="st1" d="M190.5,251.8c8.7-10.3,20-16.6,32.4-16.6c27.7,0,50.2,31.5,50.2,70.3s-22.5,70.3-50.2,70.3
				c-12.3,0-23.6-6.2-32.4-16.6c13.7,17.8,34,29,56.7,29c14,0,27-4.3,38.2-11.7c19.5-17.5,31.8-42.8,31.8-71.1
				c0-28.2-12.3-53.6-31.8-71.1c-11.2-7.4-24.2-11.7-38.2-11.7C224.5,222.8,204.2,234.1,190.5,251.8z"/>
		</g>
	</g>
	<g>
		<g>
			<path class="st2" d="M537.6,347.9c-0.2,0-0.2,0.1-0.3,0.2c-1.4,5.1-2.7,10.1-4.1,15.2c-1.1,4.1-2.3,8.1-3.2,12.3
				c0,0.1,0,0.1-0.1,0.3c-0.1-0.5-0.2-1-0.3-1.5c-0.6-2.4-1.2-4.8-1.8-7.2c-1.6-6.3-3.3-12.7-4.9-19c0-0.2-0.1-0.2-0.3-0.2
				c-1.2,0-2.5,0-3.7,0c-0.1,0-0.2,0-0.2,0c-2.4,9.3-4.9,18.6-7.2,27.9c-0.2-1-0.4-2-0.7-3c-0.5-2.1-1.1-4.1-1.6-6.2
				c-1.6-6.2-3.3-12.3-4.9-18.5c0-0.2-0.1-0.2-0.3-0.2c-1.1,0-2.3,0-3.4,0c-0.1,0-0.1,0-0.2,0c3.1,10.9,6.1,21.8,9.1,32.6
				c1.4,0,2.7,0,4,0c2.4-9.2,4.8-18.5,7.3-27.7c0,0,0,0,0,0c2.4,9.2,4.8,18.5,7.3,27.7c1.4,0,2.7,0,4,0c3-10.9,6.1-21.7,9.1-32.6
				c-0.1,0-0.2,0-0.2,0C539.8,347.9,538.7,347.9,537.6,347.9z"/>
			<path class="st2" d="M636.2,347.7l-4.9,0l-14,15c0,0,0-10,0-14.9c-1.3,0-2.6,0-3.9,0c0,10.9,0,21.9,0,32.8c1.3,0,2.6,0,3.9,0
				c0-0.1,0-0.2,0-0.3c0-4.1,0-8.2,0-12.2c0-0.1,0-0.2,0.1-0.3c1.3-1.4,2.6-2.7,3.8-4.1c0.2-0.3,0.5-0.5,0.8-0.8
				c0,0.1,0.1,0.1,0.1,0.2c0.6,1,1.2,2,1.7,2.9c2.9,4.8,5.7,9.6,8.6,14.4c0.1,0.2,0.2,0.2,0.4,0.2c1.4,0,2.7,0,4.1,0
				c0.1,0,0.1,0,0.2,0c-4.1-6.9-8.2-13.8-12.3-20.7C628.6,355.8,636.2,347.7,636.2,347.7z"/>
			<path class="st2" d="M497.7,375.5c-2.2-5.6-4.5-11.3-6.7-16.9c-1.4-3.5-2.8-7-4.2-10.6c0-0.1-0.1-0.1-0.2-0.1c-1.3,0-2.6,0-3.9,0
				c-0.1,0-0.1,0-0.2,0.1c-0.8,1.9-1.5,3.8-2.3,5.8c-1.8,4.4-3.5,8.9-5.3,13.3c-1.7,4.3-3.4,8.5-5.1,12.8c-0.1,0.2-0.2,0.4-0.2,0.6
				c0.1,0,0.1,0,0.2,0c1.2,0,2.5,0,3.7,0c0.1,0,0.2,0,0.2-0.1c1.2-3.1,2.4-6.2,3.6-9.4c0-0.1,0.1-0.1,0.2-0.1c4.7,0,9.4,0,14.1,0
				c0.1,0,0.1,0,0.2,0.1c1.2,3.1,2.4,6.3,3.7,9.4c0,0.1,0.1,0.1,0.2,0.1c1.2,0,2.5,0,3.7,0c0,0,0.1,0,0.1,0c0-0.1,0-0.1-0.1-0.2
				C499,378.7,498.4,377.1,497.7,375.5z M478.8,367.6c2-5.1,4-10.2,5.9-15.3c1.9,5.1,3.9,10.2,5.9,15.3
				C486.7,367.6,482.8,367.6,478.8,367.6z"/>
			<path class="st2" d="M452.9,357.9c-0.7-2-1.7-3.8-3.2-5.3c-1.3-1.4-2.9-2.5-4.7-3.3c-2.4-1-4.9-1.5-7.4-1.5c-3,0-6,0-9,0
				c-0.1,0-0.1,0-0.2,0c0,10.9,0,21.7,0,32.6c0.1,0,0.1,0,0.2,0c2.9,0,5.8,0,8.7,0c1,0,2.1-0.1,3.1-0.2c1.4-0.2,2.7-0.5,4-1
				c2.1-0.8,4-2,5.6-3.7c1.5-1.6,2.5-3.4,3.2-5.5c0.6-1.8,0.8-3.6,0.9-5.4c0-0.9,0-1.9-0.1-2.8C453.6,360.5,453.3,359.2,452.9,357.9
				z M449.8,365.8c-0.1,1.7-0.5,3.4-1.2,5c-1.2,2.6-3.1,4.3-5.7,5.3c-1.1,0.4-2.2,0.7-3.3,0.8c-0.9,0.1-1.8,0.2-2.7,0.2
				c-1.5,0-2.9,0-4.4,0c0,0-0.1,0-0.2,0c0-0.1,0-0.1,0-0.2c0-8.5,0-16.9,0-25.4c0-0.2,0-0.2,0.2-0.2c1.7,0,3.3,0,5,0
				c2,0,4,0.3,5.8,1.1c2.9,1.2,4.8,3.4,5.8,6.3c0.4,1.2,0.6,2.4,0.7,3.6C449.9,363.5,449.9,364.7,449.8,365.8z"/>
			<path class="st2" d="M404,365.4c5,0,10.1,0,15.1,0c0-1.2,0-2.3,0-3.4c-5,0-10.1,0-15.1,0c0-0.1,0-0.1,0-0.2c0-3.4,0-6.8,0-10.2
				c0,0,0-0.1,0-0.1c0-0.1,0-0.1,0.1-0.1c0,0,0.1,0,0.1,0c5.3,0,10.7,0,16,0c0.1,0,0.1,0,0.2,0c0-1.2,0-2.3,0-3.4
				c-6.8,0-13.5,0-20.3,0c0,10.9,0,21.7,0,32.6c6.8,0,13.6,0,20.5,0c0-1.1,0-2.3,0-3.4c-5.5,0-11,0-16.6,0
				C404,373.2,404,369.3,404,365.4z"/>
			<rect x="460.4" y="347.8" class="st2" width="3.9" height="32.7"/>
			<path class="st2" d="M387.8,347.9c-0.1,0-0.2,0-0.2,0.1c-0.5,1.3-1.1,2.7-1.6,4c-3.1,7.8-6.2,15.6-9.3,23.4
				c-0.2,0.6-0.5,1.2-0.7,1.8c0-0.1,0-0.1-0.1-0.1c-1.8-4.5-3.6-9-5.3-13.4c-2.1-5.2-4.2-10.5-6.2-15.7c0-0.1-0.1-0.1-0.2-0.1
				c-1.3,0-2.6,0-3.9,0c0,0-0.1,0-0.1,0c0,10.9,0,21.7,0,32.6c1.2,0,2.5,0,3.7,0c0-8.4,0-16.7,0-25.1c0,0,0,0,0,0.1
				c1,3,2.2,5.9,3.4,8.8c1.4,3.3,2.7,6.6,4.1,9.9c0.9,2.1,1.7,4.2,2.6,6.2c0,0.1,0.1,0.1,0.1,0.1c1.3,0,2.5,0,3.8,0
				c0.1,0,0.1,0,0.1-0.1c0.1-0.2,0.2-0.5,0.3-0.7c2.2-5.4,4.4-10.8,6.7-16.2c1.1-2.7,2.2-5.3,3.1-8.1c0,0,0,0,0-0.1c0,0,0,0,0,0
				c0,8.4,0,16.7,0,25.1c1.2,0,2.5,0,3.7,0c0-10.9,0-21.7,0-32.6c-0.1,0-0.1,0-0.2,0C390.3,347.9,389.1,347.9,387.8,347.9z"/>
			<path class="st2" d="M572.9,355.3c-1-1.8-2.2-3.4-3.8-4.7c-2.7-2.2-5.8-3.3-9.2-3.4c-1.4-0.1-2.8,0.1-4.1,0.4
				c-2.8,0.6-5.2,1.9-7.2,3.9c-1.6,1.6-2.8,3.4-3.6,5.5c-0.9,2.3-1.3,4.7-1.3,7.2c0,0.6,0.1,1.2,0.1,1.8c0.1,1.2,0.3,2.4,0.6,3.6
				c0.8,2.8,2.2,5.3,4.3,7.3c1.1,1.1,2.3,1.9,3.7,2.6c2.3,1.2,4.8,1.7,7.4,1.6c1,0,2-0.1,3-0.4c2.9-0.6,5.4-2,7.4-4.1
				c1.3-1.3,2.3-2.8,3.1-4.5c1.1-2.3,1.6-4.8,1.7-7.4c0-1.4,0-2.7-0.3-4.1C574.4,358.9,573.8,357,572.9,355.3z M569.8,370.4
				c-0.6,1.5-1.5,2.9-2.6,4c-1.6,1.7-3.6,2.7-5.9,3.1c-2.4,0.4-4.7,0.1-6.9-0.9c-1.8-0.9-3.3-2.1-4.4-3.8c-1.1-1.6-1.8-3.4-2.1-5.2
				c-0.2-1-0.3-2-0.3-3c-0.1-2.2,0.2-4.4,1-6.5c0.9-2.2,2.2-4.1,4.1-5.5c1.4-1,2.9-1.7,4.6-1.9c1.9-0.3,3.8-0.2,5.6,0.5
				c2.6,0.9,4.5,2.6,5.9,4.9c0.9,1.4,1.4,3,1.7,4.6c0.2,1.1,0.3,2.2,0.3,3.4C571,366.3,570.7,368.4,569.8,370.4z"/>
			<path class="st2" d="M597,366c1.3-0.3,2.4-0.7,3.5-1.3c1.7-1,3-2.4,3.7-4.3c0.6-1.4,0.7-2.9,0.6-4.4c-0.1-1.2-0.4-2.3-1-3.3
				c-0.9-1.8-2.3-3-4.1-3.8c-1.6-0.8-3.3-1.1-5.1-1.1c-4.3,0-8.7,0-13,0c0,0-0.1,0-0.1,0c0,10.9,0,21.7,0,32.6c1.3,0,2.6,0,3.9,0
				c0-4.7,0-9.4,0-14.2c0,0,0.1,0,0.1,0c2.4,0,4.7,0,7.1,0c0.1,0,0.1,0,0.2,0.1c0.3,0.6,0.6,1.2,1,1.7c2.3,4.1,4.6,8.2,6.9,12.2
				c0,0.1,0.1,0.1,0.2,0.1c1.4,0,2.7,0,4.1,0c0,0,0.1,0,0.1,0C602.4,375.6,599.7,370.8,597,366C597,366,597,366,597,366z
				 M593.5,362.8c-2.6,0-5.3,0-7.9,0c-0.1,0-0.1,0-0.2,0c0-0.1,0-0.1,0-0.2c0-3.8,0-7.5,0-11.3c0-0.1,0-0.1,0.1-0.1
				c2.8,0,5.7,0,8.5,0c1.3,0,2.5,0.2,3.7,0.7c1.1,0.4,1.9,1.1,2.5,2.1c0.4,0.7,0.6,1.4,0.7,2.2c0.1,0.9,0,1.8-0.2,2.7
				c-0.4,1.4-1.3,2.3-2.5,3c-0.8,0.4-1.7,0.6-2.6,0.8C594.9,362.7,594.2,362.8,593.5,362.8z"/>
			<path class="st2" d="M665.1,369.6c-0.2-1.4-0.8-2.7-1.8-3.8c-0.9-1-2-1.8-3.3-2.4c-1.7-0.8-3.4-1.3-5.2-1.6
				c-1.3-0.2-2.6-0.5-3.8-0.9c-1-0.3-2-0.8-2.9-1.4c-1.2-0.9-2.1-2-2.2-3.5c-0.1-1,0.1-2,0.7-2.9c0.6-0.9,1.4-1.5,2.4-1.9
				c1-0.4,2.1-0.6,3.1-0.7c1.1-0.1,2.2,0,3.3,0.3c1.5,0.4,2.9,1.2,4,2.4c1,1,1.6,2.2,2.1,3.5c0,0,0,0.1,0.1,0.1
				c1-0.6,2.1-1.2,3.1-1.8c0.1,0,0.1-0.1,0-0.1c-0.2-0.5-0.4-1.1-0.7-1.6c-1.4-2.7-3.6-4.4-6.4-5.4c-1.8-0.6-3.6-0.8-5.4-0.7
				c-1.2,0.1-2.3,0.2-3.4,0.6c-1.7,0.5-3.3,1.3-4.5,2.7c-0.8,0.8-1.4,1.8-1.7,2.9c-0.4,1.3-0.5,2.6-0.2,3.9c0.2,1.3,0.7,2.4,1.5,3.4
				c0.8,1.1,1.9,1.9,3.1,2.5c1.5,0.8,3.2,1.4,4.9,1.7c0.9,0.2,1.9,0.4,2.8,0.6c1.2,0.3,2.4,0.7,3.5,1.2c0.7,0.4,1.4,0.8,2,1.4
				c0.8,0.8,1.2,1.8,1.3,2.9c0.1,0.9,0,1.8-0.3,2.6c-0.6,1.4-1.6,2.3-2.9,3c-1.1,0.6-2.3,0.9-3.5,1c-1.3,0.1-2.6,0-3.9-0.3
				c-1.8-0.5-3.3-1.4-4.5-2.8c-1-1.2-1.6-2.6-2-4.1c-0.1-0.4-0.2-0.9-0.3-1.3c0,0,0,0,0,0c-1.1,0.6-2.2,1.2-3.3,1.8
				c0,0-0.1,0.1-0.1,0.1c0,0.3,0.1,0.5,0.2,0.8c0.5,2.1,1.5,3.9,2.9,5.4c1.5,1.5,3.2,2.6,5.3,3.2c1.8,0.6,3.7,0.7,5.6,0.6
				c1.3-0.1,2.6-0.3,3.9-0.8c1.8-0.6,3.4-1.6,4.6-3.1c1.5-1.7,2.2-3.7,2.2-5.9C665.2,370.7,665.2,370.2,665.1,369.6z"/>
		</g>
		<g>
			<path class="st2" d="M472.3,253.4c-8.8,0-16.4,4.1-21.5,10.7v-9.3h-7v80.4h7v-28.8c5.1,6.6,12.7,10.7,21.5,10.7
				c16.3,0,29.6-14.3,29.6-31.9C501.9,267.7,488.6,253.4,472.3,253.4z M472.3,310.3c-12.5,0-22.7-11.2-22.7-25
				c0-13.8,10.2-25,22.7-25c12.5,0,22.7,11.2,22.7,25C495,299.1,484.8,310.3,472.3,310.3z"/>
			<path class="st2" d="M394.3,229.9c-23.4,0-42.4,19.9-42.4,44.5c0,24.5,19,44.5,42.4,44.5c23.4,0,42.4-20,42.4-44.5
				C436.7,249.9,417.7,229.9,394.3,229.9z M394.3,312.2c-19.7,0-35.7-17-35.7-37.8c0-20.8,16-37.8,35.7-37.8
				c19.7,0,35.7,17,35.7,37.8C430.1,295.2,414,312.2,394.3,312.2z"/>
			<path class="st2" d="M599.9,253.7c-2.4,0.1-4.7,0.7-6.8,1.9c-4.5,2.4-7.6,6-9.6,10.7c0,0.1-0.1,0.2-0.1,0.3c0,0,0,0-0.1,0
				c0-3.7,0-7.4,0-11.1h0v-0.1h-7v0.1c0,20.1,0,40.1,0,60.2c2.3,0,4.7,0,7,0c0,0,0,0,0,0c0-0.2,0-0.3,0-0.4c0-10.8,0-20.4,0-31.2
				c0-4.4,0.7-8.1,2.2-11.6c1.3-3.3,3.2-6.2,5.9-8.5c3.2-2.7,6.8-3.9,11-3.2c0.7,0.1,1.3,0.3,2,0.4c0.4-2,1.3-4.5,1.8-6.6
				C604.2,253.9,601.7,253.6,599.9,253.7z"/>
			<path class="st2" d="M537.8,253.5c-16.3,0-29.6,14.3-29.6,31.9c0,17.6,13.3,31.9,29.6,31.9c11.7,0,21.8-7.3,26.6-17.9l-6-3.5
				c-3.6,8.6-11.5,14.5-20.6,14.5c-11.8,0-21.6-10-22.6-22.7h48l0,0h4.2c0-0.7,0.1-1.5,0.1-2.2C567.4,266.6,555.3,253.5,537.8,253.5
				z M537.8,260.4c12.4,0,21,8.3,22.5,21.1h-44.9C517.1,269.6,526.5,260.4,537.8,260.4z"/>
			<path class="st2" d="M655.8,254.9v9.3c-5.1-6.6-12.7-10.7-21.5-10.7c-16.3,0-29.6,14.3-29.6,31.9c0,17.6,13.3,31.9,29.6,31.9
				c8.8,0,16.4-4.1,21.5-10.7v9.1h7v-60.7H655.8z M634.3,310.3c-12.5,0-22.7-11.2-22.7-25c0-13.8,10.2-25,22.7-25s22.7,11.2,22.7,25
				C657,299.1,646.8,310.3,634.3,310.3z"/>
		</g>
	</g>
</g>
</svg>
